<svg width="20" height="20" viewBox="0 0 20 20" fill="none" xmlns="http://www.w3.org/2000/svg">
<path d="M3.75 13.75C5.82107 13.75 7.5 12.0711 7.5 10C7.5 7.92893 5.82107 6.25 3.75 6.25C1.67893 6.25 0 7.92893 0 10C0 12.0711 1.67893 13.75 3.75 13.75Z" fill="#EAEEF4"/>
<path d="M16.25 7.5C18.3211 7.5 20 5.82107 20 3.75C20 1.67893 18.3211 0 16.25 0C14.1789 0 12.5 1.67893 12.5 3.75C12.5 5.82107 14.1789 7.5 16.25 7.5Z" fill="#EAEEF4"/>
<path d="M16.25 20C18.3211 20 20 18.3211 20 16.25C20 14.1789 18.3211 12.5 16.25 12.5C14.1789 12.5 12.5 14.1789 12.5 16.25C12.5 18.3211 14.1789 20 16.25 20Z" fill="#EAEEF4"/>
<path d="M16.25 3.75L3.75 10L16.25 16.25" stroke="#EAEEF4" stroke-width="3" stroke-miterlimit="10"/>
</svg>
