<svg width="242" height="44" viewBox="0 0 242 44" fill="none" xmlns="http://www.w3.org/2000/svg">
<path d="M0 0.137207H7.26857C9.00571 0.137207 10.5371 0.472445 11.8629 1.14292C13.2038 1.79816 14.24 2.72768 14.9714 3.93149C15.7181 5.1353 16.0914 6.53721 16.0914 8.13721C16.0914 9.73721 15.7181 11.1391 14.9714 12.3429C14.24 13.5467 13.2038 14.4839 11.8629 15.1543C10.5371 15.8096 9.00571 16.1372 7.26857 16.1372H0V0.137207ZM7.08571 13.0972C8.68571 13.0972 9.95809 12.6553 10.9029 11.7715C11.8629 10.8724 12.3429 9.66102 12.3429 8.13721C12.3429 6.6134 11.8629 5.40959 10.9029 4.52578C9.95809 3.62673 8.68571 3.17721 7.08571 3.17721H3.70286V13.0972H7.08571Z" fill="#665FFD"/>
<path d="M54.1296 13.1658V16.1372H41.7411V0.137207H53.8325V3.10864H45.4211V6.58292H52.8496V9.46292H45.4211V13.1658H54.1296Z" fill="#665FFD"/>
<path fill-rule="evenodd" clip-rule="evenodd" d="M159.604 8.13714H157.981V13.5314C156.838 14.3543 155.444 14.7657 153.798 14.7657C152.503 14.7657 151.337 14.4762 150.301 13.8971C149.265 13.3181 148.45 12.5257 147.856 11.52C147.261 10.5143 146.964 9.38667 146.964 8.13714C146.964 6.88762 147.261 5.76 147.856 4.75429C148.45 3.73333 149.265 2.94095 150.301 2.37714C151.353 1.7981 152.526 1.50857 153.821 1.50857C155.772 1.50857 157.379 2.13333 158.644 3.38286L159.696 2.30857C158.995 1.54667 158.134 0.975238 157.113 0.594286C156.092 0.198095 154.972 0 153.753 0C152.137 0 150.69 0.350476 149.41 1.05143C148.13 1.75238 147.124 2.72762 146.393 3.97714C145.661 5.21143 145.296 6.5981 145.296 8.13714C145.296 9.67619 145.661 11.0705 146.393 12.32C147.124 13.5543 148.13 14.5219 149.41 15.2229C150.69 15.9238 152.13 16.2743 153.73 16.2743C154.857 16.2743 155.932 16.099 156.953 15.7486C157.974 15.3981 158.857 14.8952 159.604 14.24V8.13714ZM80.6412 0.137143H82.3327V14.6743H91.2927V16.1371H80.6412V0.137143ZM116.958 0.137143H118.65V16.1371H116.958V0.137143ZM200.62 0.137143V16.1371H198.951V8.75429H188.94V16.1371H187.248V0.137143H188.94V7.26857H198.951V0.137143H200.62ZM226.185 1.6H231.808V16.1371H233.499V1.6H239.122V0.137143H226.185V1.6ZM14.8943 26.1406H15.8086V39.7086H14.8943V26.1406ZM4.83163 30.0903C5.72153 30.0903 6.5261 30.2976 7.24534 30.7121C7.96458 31.1265 8.52534 31.6995 8.92763 32.4309C9.3421 33.1623 9.54934 33.9974 9.54934 34.9361C9.54934 35.8747 9.3421 36.7159 8.92763 37.4595C8.52534 38.1909 7.96458 38.7639 7.24534 39.1783C6.5261 39.5806 5.72153 39.7818 4.83163 39.7818C3.99049 39.7818 3.22858 39.5867 2.54591 39.1966C1.86325 38.7943 1.33296 38.2397 0.955057 37.5326V43.2561H0.0407715V30.1635H0.918486V32.4126C1.29639 31.6812 1.82668 31.1143 2.50934 30.7121C3.2042 30.2976 3.9783 30.0903 4.83163 30.0903ZM4.77677 38.9589C5.5082 38.9589 6.16649 38.7882 6.75163 38.4469C7.33677 38.1056 7.79391 37.6301 8.12306 37.0206C8.46439 36.4111 8.63506 35.7162 8.63506 34.9361C8.63506 34.1559 8.46439 33.461 8.12306 32.8515C7.79391 32.242 7.33677 31.7665 6.75163 31.4252C6.16649 31.0839 5.5082 30.9132 4.77677 30.9132C4.04534 30.9132 3.38706 31.0839 2.80191 31.4252C2.22896 31.7665 1.77182 32.242 1.43049 32.8515C1.10134 33.461 0.936771 34.1559 0.936771 34.9361C0.936771 35.7162 1.10134 36.4111 1.43049 37.0206C1.77182 37.6301 2.22896 38.1056 2.80191 38.4469C3.38706 38.7882 4.04534 38.9589 4.77677 38.9589ZM22.0302 35.1555H30.2405L30.2588 34.8995C30.2588 33.973 30.0576 33.1441 29.6553 32.4126C29.2652 31.6812 28.7228 31.1143 28.0279 30.7121C27.3452 30.2976 26.5711 30.0903 25.7056 30.0903C24.8401 30.0903 24.0599 30.2976 23.3651 30.7121C22.6702 31.1265 22.1216 31.7056 21.7193 32.4492C21.3292 33.1806 21.1342 34.0096 21.1342 34.9361C21.1342 35.8747 21.3414 36.7098 21.7559 37.4412C22.1826 38.1726 22.7677 38.7456 23.5113 39.1601C24.255 39.5745 25.1022 39.7818 26.0531 39.7818C26.7845 39.7818 27.4611 39.6477 28.0828 39.3795C28.7167 39.1113 29.2409 38.7273 29.6553 38.2275L29.1251 37.6241C28.7715 38.0629 28.3266 38.3982 27.7902 38.6298C27.266 38.8492 26.6931 38.9589 26.0713 38.9589C25.3155 38.9589 24.6329 38.8004 24.0233 38.4835C23.426 38.1665 22.9506 37.7216 22.5971 37.1486C22.2435 36.5635 22.0546 35.8991 22.0302 35.1555ZM23.8953 31.3521C24.4317 31.0473 25.0352 30.8949 25.7056 30.8949C26.3761 30.8949 26.9795 31.0473 27.5159 31.3521C28.0523 31.6568 28.4851 32.0774 28.8142 32.6138C29.1433 33.1502 29.3262 33.7597 29.3628 34.4423H22.0485C22.0972 33.7597 22.2801 33.1502 22.5971 32.6138C22.9262 32.0652 23.359 31.6446 23.8953 31.3521ZM38.5519 30.0903C39.7344 30.0903 40.6426 30.3951 41.2765 31.0046C41.9104 31.602 42.2273 32.4858 42.2273 33.6561V39.7086H41.3496V38.0081C41.0449 38.5688 40.5999 39.0077 40.0148 39.3246C39.4296 39.6294 38.7287 39.7818 37.9119 39.7818C36.8513 39.7818 36.0102 39.5319 35.3885 39.0321C34.779 38.5322 34.4742 37.874 34.4742 37.0572C34.4742 36.2648 34.7546 35.6248 35.3153 35.1372C35.8883 34.6374 36.7965 34.3875 38.0399 34.3875H41.3131V33.6195C41.3131 32.7296 41.0692 32.053 40.5816 31.5898C40.1062 31.1265 39.4052 30.8949 38.4788 30.8949C37.8449 30.8949 37.2353 31.0046 36.6502 31.2241C36.0772 31.4435 35.5896 31.7361 35.1873 32.1018L34.7302 31.4435C35.2056 31.0168 35.7786 30.6877 36.4491 30.4561C37.1195 30.2122 37.8205 30.0903 38.5519 30.0903ZM38.0399 39.0321C38.8323 39.0321 39.5028 38.8492 40.0513 38.4835C40.6121 38.1178 41.0327 37.5875 41.3131 36.8926V35.1006H38.0582C37.1195 35.1006 36.4369 35.2713 36.0102 35.6126C35.5957 35.954 35.3885 36.4233 35.3885 37.0206C35.3885 37.6423 35.6201 38.1361 36.0833 38.5018C36.5466 38.8553 37.1988 39.0321 38.0399 39.0321ZM48.7281 39.4343C49.4229 39.666 50.1543 39.7818 50.9223 39.7818C52.117 39.7818 53.0435 39.5441 53.7018 39.0686C54.3601 38.5932 54.6892 37.9593 54.6892 37.1669C54.6892 36.5696 54.5307 36.1002 54.2138 35.7589C53.8968 35.4176 53.5067 35.1738 53.0435 35.0275C52.5924 34.869 51.9951 34.7227 51.2515 34.5886C50.581 34.4545 50.0568 34.3326 49.6789 34.2229C49.3132 34.101 49.0023 33.9242 48.7463 33.6926C48.4903 33.4488 48.3623 33.1136 48.3623 32.6869C48.3623 32.1505 48.5879 31.7178 49.0389 31.3886C49.49 31.0595 50.1604 30.8949 51.0503 30.8949C51.5745 30.8949 52.0865 30.9681 52.5863 31.1143C53.0861 31.2606 53.5311 31.474 53.9212 31.7543L54.3418 31.0229C53.9639 30.7425 53.4762 30.517 52.8789 30.3463C52.2816 30.1757 51.6782 30.0903 51.0686 30.0903C49.9105 30.0903 49.0145 30.3402 48.3806 30.8401C47.7589 31.3277 47.4481 31.9494 47.4481 32.7052C47.4481 33.3269 47.6126 33.8145 47.9418 34.1681C48.2709 34.5216 48.6671 34.7776 49.1303 34.9361C49.5936 35.0945 50.2031 35.2408 50.9589 35.3749C51.605 35.4968 52.1109 35.6126 52.4766 35.7223C52.8423 35.8321 53.1471 36.0027 53.3909 36.2343C53.6469 36.466 53.7749 36.7829 53.7749 37.1852C53.7749 37.746 53.5433 38.1848 53.0801 38.5018C52.629 38.8187 51.922 38.9772 50.9589 38.9772C50.2884 38.9772 49.6423 38.8675 49.0206 38.6481C48.4111 38.4286 47.9113 38.1543 47.5212 37.8252L47.1006 38.5566C47.4907 38.9102 48.0332 39.2027 48.7281 39.4343ZM68.1116 30.1635V39.7086H67.2339V37.6606C66.917 38.3311 66.4476 38.8553 65.8259 39.2332C65.2042 39.5989 64.4728 39.7818 63.6316 39.7818C62.3882 39.7818 61.413 39.4343 60.7059 38.7395C59.9989 38.0446 59.6453 37.045 59.6453 35.7406V30.1635H60.5596V35.6675C60.5596 36.7402 60.8339 37.557 61.3825 38.1178C61.9311 38.6785 62.7052 38.9589 63.7048 38.9589C64.7775 38.9589 65.6248 38.6237 66.2465 37.9532C66.8804 37.2827 67.1973 36.3806 67.1973 35.2469V30.1635H68.1116ZM76.7506 30.6572C76.1289 31.0229 75.6718 31.5532 75.3792 32.2481V30.1635H74.5015V39.7086H75.4158V34.7349C75.4158 33.5524 75.7144 32.6321 76.3118 31.9738C76.9091 31.3033 77.7381 30.9681 78.7986 30.9681L79.0181 30.9863V30.0903C78.1282 30.0903 77.3723 30.2793 76.7506 30.6572ZM92.0262 35.1555H83.8159C83.8403 35.8991 84.0293 36.5635 84.3828 37.1486C84.7363 37.7216 85.2117 38.1665 85.8091 38.4835C86.4186 38.8004 87.1012 38.9589 87.857 38.9589C88.4788 38.9589 89.0517 38.8492 89.5759 38.6298C90.1123 38.3982 90.5572 38.0629 90.9108 37.6241L91.4411 38.2275C91.0266 38.7273 90.5024 39.1113 89.8685 39.3795C89.2468 39.6477 88.5702 39.7818 87.8388 39.7818C86.8879 39.7818 86.0407 39.5745 85.2971 39.1601C84.5534 38.7456 83.9683 38.1726 83.5416 37.4412C83.1272 36.7098 82.9199 35.8747 82.9199 34.9361C82.9199 34.0096 83.115 33.1806 83.5051 32.4492C83.9073 31.7056 84.4559 31.1265 85.1508 30.7121C85.8456 30.2976 86.6258 30.0903 87.4913 30.0903C88.3569 30.0903 89.131 30.2976 89.8136 30.7121C90.5085 31.1143 91.051 31.6812 91.4411 32.4126C91.8433 33.1441 92.0445 33.973 92.0445 34.8995L92.0262 35.1555ZM87.4913 30.8949C86.8209 30.8949 86.2174 31.0473 85.6811 31.3521C85.1447 31.6446 84.7119 32.0652 84.3828 32.6138C84.0658 33.1502 83.883 33.7597 83.8342 34.4423H91.1485C91.1119 33.7597 90.9291 33.1502 90.5999 32.6138C90.2708 32.0774 89.838 31.6568 89.3016 31.3521C88.7653 31.0473 88.1618 30.8949 87.4913 30.8949ZM119.263 31.1326C118.593 30.4378 117.666 30.0903 116.484 30.0903C115.582 30.0903 114.789 30.2976 114.106 30.7121C113.436 31.1265 112.942 31.6873 112.625 32.3943C112.369 31.6385 111.937 31.0656 111.327 30.6755C110.73 30.2854 109.998 30.0903 109.133 30.0903C108.267 30.0903 107.518 30.2793 106.884 30.6572C106.262 31.0229 105.793 31.541 105.476 32.2115V30.1635H104.598V39.7086H105.512V34.6252C105.512 33.4915 105.823 32.5894 106.445 31.9189C107.079 31.2484 107.932 30.9132 109.005 30.9132C109.943 30.9132 110.675 31.1936 111.199 31.7543C111.723 32.3151 111.985 33.1319 111.985 34.2046V39.7086H112.9V34.6252C112.9 33.4915 113.21 32.5894 113.832 31.9189C114.466 31.2484 115.319 30.9132 116.392 30.9132C117.331 30.9132 118.062 31.1936 118.586 31.7543C119.111 32.3151 119.373 33.1319 119.373 34.2046V39.7086H120.287V34.1315C120.287 32.8271 119.946 31.8275 119.263 31.1326ZM129.795 30.0903C130.977 30.0903 131.885 30.3951 132.519 31.0046C133.153 31.602 133.47 32.4858 133.47 33.6561V39.7086H132.592V38.0081C132.288 38.5688 131.843 39.0077 131.258 39.3246C130.672 39.6294 129.972 39.7818 129.155 39.7818C128.094 39.7818 127.253 39.5319 126.631 39.0321C126.022 38.5322 125.717 37.874 125.717 37.0572C125.717 36.2648 125.997 35.6248 126.558 35.1372C127.131 34.6374 128.039 34.3875 129.283 34.3875H132.556V33.6195C132.556 32.7296 132.312 32.053 131.824 31.5898C131.349 31.1265 130.648 30.8949 129.722 30.8949C129.088 30.8949 128.478 31.0046 127.893 31.2241C127.32 31.4435 126.832 31.7361 126.43 32.1018L125.973 31.4435C126.448 31.0168 127.021 30.6877 127.692 30.4561C128.362 30.2122 129.063 30.0903 129.795 30.0903ZM129.283 39.0321C130.075 39.0321 130.746 38.8492 131.294 38.4835C131.855 38.1178 132.276 37.5875 132.556 36.8926V35.1006H129.301C128.362 35.1006 127.68 35.2713 127.253 35.6126C126.839 35.954 126.631 36.4233 126.631 37.0206C126.631 37.6423 126.863 38.1361 127.326 38.5018C127.789 38.8553 128.442 39.0321 129.283 39.0321ZM142.001 30.6572C141.379 31.0229 140.922 31.5532 140.629 32.2481V30.1635H139.751V39.7086H140.666V34.7349C140.666 33.5524 140.964 32.6321 141.562 31.9738C142.159 31.3033 142.988 30.9681 144.049 30.9681L144.268 30.9863V30.0903C143.378 30.0903 142.622 30.2793 142.001 30.6572ZM152.703 34.6069L150.216 36.8743V39.7086H149.301V26.1406H150.216V35.7406L156.323 30.1635H157.493L153.379 34.0218L157.896 39.7086H156.762L152.703 34.6069ZM162.027 35.1555H170.237L170.255 34.8995C170.255 33.973 170.054 33.1441 169.652 32.4126C169.262 31.6812 168.719 31.1143 168.024 30.7121C167.342 30.2976 166.568 30.0903 165.702 30.0903C164.837 30.0903 164.056 30.2976 163.361 30.7121C162.667 31.1265 162.118 31.7056 161.716 32.4492C161.326 33.1806 161.131 34.0096 161.131 34.9361C161.131 35.8747 161.338 36.7098 161.752 37.4412C162.179 38.1726 162.764 38.7456 163.508 39.1601C164.251 39.5745 165.099 39.7818 166.049 39.7818C166.781 39.7818 167.457 39.6477 168.079 39.3795C168.713 39.1113 169.237 38.7273 169.652 38.2275L169.121 37.6241C168.768 38.0629 168.323 38.3982 167.787 38.6298C167.262 38.8492 166.689 38.9589 166.068 38.9589C165.312 38.9589 164.629 38.8004 164.02 38.4835C163.422 38.1665 162.947 37.7216 162.593 37.1486C162.24 36.5635 162.051 35.8991 162.027 35.1555ZM163.892 31.3521C164.428 31.0473 165.032 30.8949 165.702 30.8949C166.373 30.8949 166.976 31.0473 167.512 31.3521C168.049 31.6568 168.481 32.0774 168.811 32.6138C169.14 33.1502 169.323 33.7597 169.359 34.4423H162.045C162.094 33.7597 162.277 33.1502 162.593 32.6138C162.923 32.0652 163.355 31.6446 163.892 31.3521ZM180.334 39.1052C180.102 39.3246 179.81 39.4953 179.456 39.6172C179.115 39.7269 178.755 39.7818 178.377 39.7818C177.548 39.7818 176.908 39.5562 176.457 39.1052C176.006 38.642 175.781 38.002 175.781 37.1852V30.9498H174.025V30.1635H175.781V28.0789H176.695V30.1635H179.73V30.9498H176.695V37.0938C176.695 37.7155 176.841 38.1909 177.134 38.5201C177.439 38.837 177.884 38.9955 178.469 38.9955C179.066 38.9955 179.56 38.8187 179.95 38.4652L180.334 39.1052ZM192.602 30.7121C191.883 30.2976 191.079 30.0903 190.189 30.0903C189.335 30.0903 188.561 30.2976 187.866 30.7121C187.184 31.1143 186.654 31.6812 186.276 32.4126V30.1635H185.398V43.2561H186.312V37.5326C186.69 38.2397 187.22 38.7943 187.903 39.1966C188.586 39.5867 189.348 39.7818 190.189 39.7818C191.079 39.7818 191.883 39.5806 192.602 39.1783C193.322 38.7639 193.882 38.1909 194.285 37.4595C194.699 36.7159 194.906 35.8747 194.906 34.9361C194.906 33.9974 194.699 33.1623 194.285 32.4309C193.882 31.6995 193.322 31.1265 192.602 30.7121ZM192.109 38.4469C191.524 38.7882 190.865 38.9589 190.134 38.9589C189.402 38.9589 188.744 38.7882 188.159 38.4469C187.586 38.1056 187.129 37.6301 186.788 37.0206C186.458 36.4111 186.294 35.7162 186.294 34.9361C186.294 34.1559 186.458 33.461 186.788 32.8515C187.129 32.242 187.586 31.7665 188.159 31.4252C188.744 31.0839 189.402 30.9132 190.134 30.9132C190.865 30.9132 191.524 31.0839 192.109 31.4252C192.694 31.7665 193.151 32.242 193.48 32.8515C193.822 33.461 193.992 34.1559 193.992 34.9361C193.992 35.7162 193.822 36.4111 193.48 37.0206C193.151 37.6301 192.694 38.1056 192.109 38.4469ZM200.251 26.1406H201.166V39.7086H200.251V26.1406ZM213.476 31.0046C212.843 30.3951 211.934 30.0903 210.752 30.0903C210.02 30.0903 209.32 30.2122 208.649 30.4561C207.979 30.6877 207.406 31.0168 206.93 31.4435L207.387 32.1018C207.79 31.7361 208.277 31.4435 208.85 31.2241C209.435 31.0046 210.045 30.8949 210.679 30.8949C211.605 30.8949 212.306 31.1265 212.782 31.5898C213.269 32.053 213.513 32.7296 213.513 33.6195V34.3875H210.24C208.996 34.3875 208.088 34.6374 207.515 35.1372C206.955 35.6248 206.674 36.2648 206.674 37.0572C206.674 37.874 206.979 38.5322 207.588 39.0321C208.21 39.5319 209.051 39.7818 210.112 39.7818C210.929 39.7818 211.63 39.6294 212.215 39.3246C212.8 39.0077 213.245 38.5688 213.55 38.0081V39.7086H214.427V33.6561C214.427 32.4858 214.11 31.602 213.476 31.0046ZM212.251 38.4835C211.703 38.8492 211.032 39.0321 210.24 39.0321C209.399 39.0321 208.747 38.8553 208.283 38.5018C207.82 38.1361 207.588 37.6423 207.588 37.0206C207.588 36.4233 207.796 35.954 208.21 35.6126C208.637 35.2713 209.32 35.1006 210.258 35.1006H213.513V36.8926C213.233 37.5875 212.812 38.1178 212.251 38.4835ZM224.512 39.7818C223.585 39.7818 222.756 39.5745 222.025 39.1601C221.293 38.7456 220.72 38.1726 220.306 37.4412C219.891 36.6976 219.684 35.8625 219.684 34.9361C219.684 33.9974 219.891 33.1623 220.306 32.4309C220.72 31.6873 221.293 31.1143 222.025 30.7121C222.756 30.2976 223.585 30.0903 224.512 30.0903C225.28 30.0903 225.974 30.2427 226.596 30.5475C227.23 30.8401 227.742 31.2728 228.132 31.8458L227.456 32.3395C227.114 31.8641 226.688 31.5105 226.176 31.2789C225.676 31.0351 225.121 30.9132 224.512 30.9132C223.768 30.9132 223.098 31.0839 222.5 31.4252C221.915 31.7543 221.452 32.2237 221.11 32.8332C220.781 33.4427 220.617 34.1437 220.617 34.9361C220.617 35.7284 220.781 36.4294 221.11 37.0389C221.452 37.6484 221.915 38.1239 222.5 38.4652C223.098 38.7943 223.768 38.9589 224.512 38.9589C225.121 38.9589 225.676 38.8431 226.176 38.6115C226.688 38.3677 227.114 38.0081 227.456 37.5326L228.132 38.0263C227.742 38.5993 227.23 39.0382 226.596 39.3429C225.974 39.6355 225.28 39.7818 224.512 39.7818ZM233.077 35.1555H241.287L241.305 34.8995C241.305 33.973 241.104 33.1441 240.702 32.4126C240.312 31.6812 239.769 31.1143 239.074 30.7121C238.392 30.2976 237.618 30.0903 236.752 30.0903C235.887 30.0903 235.106 30.2976 234.411 30.7121C233.717 31.1265 233.168 31.7056 232.766 32.4492C232.376 33.1806 232.181 34.0096 232.181 34.9361C232.181 35.8747 232.388 36.7098 232.802 37.4412C233.229 38.1726 233.814 38.7456 234.558 39.1601C235.301 39.5745 236.149 39.7818 237.099 39.7818C237.831 39.7818 238.507 39.6477 239.129 39.3795C239.763 39.1113 240.287 38.7273 240.702 38.2275L240.171 37.6241C239.818 38.0629 239.373 38.3982 238.837 38.6298C238.312 38.8492 237.739 38.9589 237.118 38.9589C236.362 38.9589 235.679 38.8004 235.07 38.4835C234.472 38.1665 233.997 37.7216 233.643 37.1486C233.29 36.5635 233.101 35.8991 233.077 35.1555ZM234.942 31.3521C235.478 31.0473 236.082 30.8949 236.752 30.8949C237.423 30.8949 238.026 31.0473 238.562 31.3521C239.099 31.6568 239.531 32.0774 239.861 32.6138C240.19 33.1502 240.373 33.7597 240.409 34.4423H233.095C233.144 33.7597 233.327 33.1502 233.643 32.6138C233.973 32.0652 234.405 31.6446 234.942 31.3521Z" fill="#616161"/>
</svg>
