<svg width="26" height="26" viewBox="0 0 26 26" fill="none" xmlns="http://www.w3.org/2000/svg">
<path d="M20.968 9.39998C20.68 9.68798 17.32 9.35198 16.936 9.01598C16.6 8.67998 16.264 5.36798 16.648 5.03198C16.984 4.69598 19.864 1.81598 19.864 1.81598C19.864 1.81598 20.2 1.47998 19.672 1.47998C18.136 1.47998 14.92 1.52798 13.384 3.06398L13.048 3.39998C11.032 5.41598 11.08 8.58398 13.048 10.6L15.448 13C17.416 14.968 20.584 15.064 22.648 13L22.984 12.664C24.472 11.176 24.52 8.00798 24.52 6.37598C24.52 5.84798 24.136 6.18398 24.136 6.18398C24.136 6.18398 21.256 9.15998 20.968 9.39998Z" stroke="#665FFD" stroke-width="2" stroke-miterlimit="10"/>
<path d="M12.664 9.92798L2.39204 19.24C1.67204 19.96 0.712037 21.928 2.39204 23.608C4.07204 25.288 6.04004 24.328 6.76004 23.608C6.76004 23.608 15.784 13.384 16.024 13.48" stroke="#665FFD" stroke-width="2" stroke-miterlimit="10"/>
</svg>
