<svg width="26" height="26" viewBox="0 0 26 26" fill="none" xmlns="http://www.w3.org/2000/svg">
<path d="M9.32654 15.6938C18.8286 15.6938 19.3184 23.0408 21.0816 23.0408H21.1306C21.5714 23.0408 22.0612 21.5714 22.0612 12.2653C22.0612 2.95913 21.5225 1.48975 21.0816 1.48975C19.3674 1.48975 18.7306 8.83668 9.32654 8.83668" stroke="#665FFD" stroke-width="2" stroke-miterlimit="10" stroke-linecap="round" stroke-linejoin="round"/>
<path d="M22.0613 14.2245H22.5511C23.6286 14.2245 24.5103 13.3429 24.5103 12.2653C24.5103 11.1878 23.6286 10.3062 22.5511 10.3062H22.0613" stroke="#665FFD" stroke-width="2" stroke-miterlimit="10" stroke-linecap="round" stroke-linejoin="round"/>
<path d="M7.85704 15.6939C7.85704 19.5143 8.59173 21.3265 8.98357 21.6694C9.57132 22.2571 9.81622 22.551 9.81622 23.2857C9.81622 24.0204 9.47336 24.5102 8.64071 24.5102H6.92642C5.89785 24.5102 5.555 23.9714 5.40806 23.1877C4.5754 18.6326 3.84071 16.0857 3.00806 15.449" stroke="#665FFD" stroke-width="2" stroke-miterlimit="10" stroke-linecap="round" stroke-linejoin="round"/>
<path d="M4.08566 8.83667C2.66526 8.83667 1.48975 10.0122 1.48975 11.3836V13.0979C1.48975 14.5183 2.66526 15.6938 4.08566 15.6938H9.32648V8.83667H4.08566Z" stroke="#665FFD" stroke-width="2" stroke-miterlimit="10" stroke-linecap="round" stroke-linejoin="round"/>
</svg>
