<svg width="26" height="26" viewBox="0 0 26 26" fill="none" xmlns="http://www.w3.org/2000/svg">
<path d="M24.52 14.44V11.56L21.112 10.984C20.92 10.168 20.584 9.39998 20.152 8.72798L22.168 5.89598L20.152 3.87998L17.32 5.84798C16.6 5.41598 15.832 5.07998 15.016 4.88798L14.44 1.47998H11.56L10.984 4.88798C10.168 5.07998 9.39998 5.41598 8.67998 5.84798L5.89598 3.83198L3.87998 5.84798L5.79998 8.67998C5.36798 9.39998 5.03198 10.168 4.83998 10.984L1.47998 11.56V14.44L4.83998 15.016C5.03198 15.832 5.36798 16.6 5.79998 17.32L3.78398 20.104L5.79998 22.12L8.63198 20.152C9.35198 20.584 10.12 20.92 10.936 21.112L11.56 24.52H14.44L15.064 21.112C15.88 20.92 16.648 20.584 17.368 20.152L20.2 22.168L22.216 20.152L20.2 17.32C20.632 16.6 20.92 15.88 21.16 15.064L24.52 14.44ZM13 16.84C10.888 16.84 9.15998 15.112 9.15998 13C9.15998 10.888 10.888 9.15998 13 9.15998C15.112 9.15998 16.84 10.888 16.84 13C16.84 15.112 15.112 16.84 13 16.84Z" stroke="#665FFD" stroke-width="2" stroke-miterlimit="10" stroke-linecap="round"/>
</svg>
