<svg width="25" height="25" viewBox="0 0 25 25" fill="none" xmlns="http://www.w3.org/2000/svg">
<path d="M15.4 25V21.976L16.888 22.072C18.952 22.264 20.68 20.632 20.68 18.568V15.976L22.6 15.016C23.032 14.776 23.176 14.248 22.936 13.816L20.68 9.92798C20.152 5.41598 17.8 1.47998 11.08 1.47998C4.35998 1.47998 1.47998 6.03998 1.47998 11.08C1.47998 13.096 2.10398 14.968 3.15998 16.504C4.21598 18.04 4.83998 19.864 4.83998 21.736V25" stroke="#665FFD" stroke-width="2" stroke-miterlimit="10"/>
<path d="M11.08 16.36C12.9356 16.36 14.44 14.8557 14.44 13C14.44 11.1443 12.9356 9.64001 11.08 9.64001C9.22429 9.64001 7.71997 11.1443 7.71997 13C7.71997 14.8557 9.22429 16.36 11.08 16.36Z" stroke="#665FFD" stroke-width="2" stroke-miterlimit="10"/>
<path d="M17.32 19.2399C17.8502 19.2399 18.28 18.8101 18.28 18.2799C18.28 17.7498 17.8502 17.3199 17.32 17.3199C16.7898 17.3199 16.36 17.7498 16.36 18.2799C16.36 18.8101 16.7898 19.2399 17.32 19.2399Z" stroke="#665FFD" stroke-width="2" stroke-miterlimit="10"/>
<path d="M11.1201 9.63998V1.47998" stroke="#665FFD" stroke-width="2" stroke-miterlimit="10"/>
<path d="M13.48 15.4L16.6 17.56" stroke="#665FFD" stroke-width="2" stroke-miterlimit="10"/>
</svg>
