<svg width="20" height="26" viewBox="0 0 20 26" fill="none" xmlns="http://www.w3.org/2000/svg">
<path d="M4.7334 6.93335H15.4001" stroke="#665FFD" stroke-width="2" stroke-miterlimit="10" stroke-linejoin="round"/>
<path d="M4.7334 10.1333H15.4001" stroke="#665FFD" stroke-width="2" stroke-miterlimit="10" stroke-linejoin="round"/>
<path d="M10.5999 15.6399C10.5466 15.3199 10.2799 15.0532 9.9599 14.9999C9.9599 14.9466 9.90657 14.9466 9.90657 14.8932C10.0132 14.5732 9.9599 14.2532 9.69323 14.0399C9.42657 13.8266 9.05323 13.8266 8.78657 13.9866C8.73323 13.9866 8.73323 13.9866 8.6799 13.9332C8.57323 13.6132 8.30657 13.3999 7.93323 13.3999C7.61323 13.3999 7.29323 13.6132 7.18657 13.9332C7.13323 13.9332 7.13323 13.9332 7.0799 13.9866C6.81323 13.8266 6.4399 13.8266 6.17323 14.0399C5.90657 14.2532 5.85323 14.5732 5.9599 14.8932C5.9599 14.9466 5.90657 14.9466 5.90657 14.9999C5.58657 15.0532 5.3199 15.3199 5.26657 15.6399C5.21323 15.9599 5.37323 16.2799 5.6399 16.4399C5.6399 16.4932 5.6399 16.5466 5.6399 16.5999C5.42657 16.8666 5.42657 17.1866 5.58657 17.4532C5.74657 17.7199 6.06657 17.8799 6.38657 17.8266C6.4399 17.8799 6.49323 17.8799 6.49323 17.9332C6.49323 18.2532 6.70657 18.5199 6.97323 18.6266C7.29323 18.7332 7.61323 18.6266 7.82657 18.4132C7.8799 18.4132 7.8799 18.4132 7.93323 18.4132C7.98657 18.4132 7.98657 18.4132 8.0399 18.4132C8.1999 18.5732 8.41323 18.6799 8.62657 18.6799C8.73323 18.6799 8.78657 18.6799 8.89323 18.6266C9.21323 18.5199 9.37323 18.2532 9.37323 17.9332C9.42657 17.8799 9.4799 17.8799 9.4799 17.8266C9.7999 17.8799 10.1199 17.7199 10.2799 17.4532C10.4399 17.1866 10.3866 16.8132 10.2266 16.5999C10.2266 16.5466 10.2266 16.4932 10.2266 16.4399C10.4932 16.2799 10.6532 15.9599 10.5999 15.6399Z" stroke="#665FFD" stroke-width="2" stroke-miterlimit="10" stroke-linejoin="round"/>
<path d="M4.73333 22.8668H1.53333V1.53345H18.6V22.8668H11.1333" stroke="#665FFD" stroke-width="2" stroke-miterlimit="10" stroke-linejoin="round"/>
<path d="M10.0667 17.6667V24.4667L7.93338 22.8667L5.80005 24.4667V17.6667" stroke="#665FFD" stroke-width="2" stroke-miterlimit="10" stroke-linejoin="round"/>
</svg>
