<svg width="118" height="32" viewBox="0 0 118 32" fill="none" xmlns="http://www.w3.org/2000/svg">
<g clip-path="url(#clip0)">
<path fill-rule="evenodd" clip-rule="evenodd" d="M15.7928 6.86135C16.7688 5.68456 17.4368 4.08455 17.2515 2.46069C15.8387 2.52062 14.0712 3.40219 13.0535 4.55294C12.153 5.56629 11.3485 7.2281 11.5566 8.79078C13.144 8.90466 14.7737 8.0187 15.7928 6.86135ZM23.1877 22.6066C23.1653 22.7033 22.6025 24.591 21.2004 26.5057C20.0299 28.1926 18.8031 29.8412 16.8546 29.871C14.9623 29.9131 14.3256 28.7987 12.1547 28.7987C9.96413 28.7987 9.28573 29.8412 7.47071 29.9131C5.61498 29.9792 4.19697 28.1138 2.98381 26.4413C0.558791 23.0289 -1.32918 16.825 1.20234 12.6034C2.42852 10.5325 4.66497 9.19948 7.05612 9.16403C8.91381 9.12764 10.6376 10.3722 11.7795 10.3722C12.8985 10.3722 15.0304 8.88293 17.2278 9.10568C18.1472 9.13172 20.7634 9.4558 22.4517 11.8263C22.3152 11.9051 19.3349 13.5923 19.3672 17.0612C19.4053 21.2175 23.1428 22.5922 23.1877 22.6066Z" fill="#665FFD"/>
<path fill-rule="evenodd" clip-rule="evenodd" d="M87.3651 8.81789H87.93C88.7666 8.81789 89.3536 9.00608 89.3536 9.56877C89.3536 10.1734 88.6142 10.319 88.007 10.319C87.7462 10.319 87.5828 10.319 87.3651 10.2977V8.81789ZM87.3769 6.79651C87.5714 6.77585 87.746 6.75424 88.0175 6.75424C88.799 6.75424 89.1683 6.97343 89.1683 7.37956C89.1683 7.86929 88.6032 8.04653 87.9297 8.04653H87.3769V6.79651ZM86.0633 11.0683C86.3794 11.0786 87.0843 11.1306 87.7577 11.1306C88.8114 11.1306 90.7229 10.985 90.7229 9.59844C90.7229 8.88951 90.1907 8.47305 89.3974 8.35813V8.33778C89.9623 8.22286 90.485 7.85838 90.485 7.21177C90.485 6.04442 88.8877 5.93044 87.996 5.93044C87.268 5.93044 86.4548 5.99307 86.0623 6.05538H86.0633V11.0683ZM78.8533 6.80625C79.7673 6.80625 80.137 7.72372 80.137 8.51687C80.137 9.54895 79.6054 10.2576 78.8451 10.2576C78.0405 10.2576 77.5298 9.51732 77.5298 8.53691C77.5298 7.69272 77.9113 6.80625 78.8533 6.80625ZM78.8004 11.1842C80.1471 11.1842 81.5156 10.3497 81.5156 8.48376C81.5156 6.94129 80.462 5.8779 78.8876 5.8779C77.2909 5.8779 76.1508 6.89901 76.1508 8.56737C76.1508 10.2035 77.3118 11.1842 78.8004 11.1842ZM71.0821 11.0695H69.7462V5.99371H71.0821V7.93229H73.1248V5.99371H74.4597V11.0695H73.1248V8.93305H71.0821V11.0695ZM63.0577 5.99371H67.7272V11.0695H66.3805V6.98382H64.3923V11.0695H63.0577V5.99371ZM58.3431 10.6524L56.3983 5.99371H57.8781L58.8228 8.71449C58.9305 9.02699 59.0509 9.41245 59.1256 9.69365H59.1585C59.2349 9.41245 59.3321 9.02699 59.4424 8.70353L60.2667 5.99371H61.6897L60.3626 9.45441C59.6349 11.352 59.1461 12.1952 58.5275 12.7169C57.9946 13.1556 57.4513 13.3225 57.1257 13.3641L56.8212 12.2898C57.0496 12.2384 57.3208 12.1235 57.5926 11.9357C57.8537 11.7781 58.1467 11.4766 58.3314 11.1322C58.3849 11.0382 58.4071 10.9653 58.4071 10.903C58.4071 10.8516 58.3963 10.7786 58.3431 10.6524ZM55.5898 6.98382H54.0036V11.0695H52.6671V6.98382H51.0809V5.99371H55.5898V6.98382ZM45.8486 8.57833C45.8486 7.05652 46.9339 5.8779 48.7922 5.8779C49.2813 5.8779 49.7799 5.98249 50.0844 6.10774L49.8465 7.07656C49.6292 6.9726 49.3133 6.87835 48.8359 6.87835C47.8146 6.87835 47.206 7.59792 47.2168 8.52447C47.2168 9.5675 47.9236 10.1615 48.8359 10.1615C49.2921 10.1615 49.6282 10.0679 49.8889 9.96236L50.0736 10.9133C49.7917 11.0376 49.2373 11.1745 48.5752 11.1745C46.9238 11.1745 45.8486 10.1531 45.8486 8.57833ZM41.8223 6.80625C42.7347 6.80625 43.1041 7.72372 43.1041 8.51687C43.1041 9.54895 42.5712 10.2576 41.8116 10.2576C41.0079 10.2576 40.4969 9.51732 40.4969 8.53691C40.4969 7.69272 40.877 6.80625 41.8223 6.80625ZM41.7671 11.1842C43.1138 11.1842 44.4823 10.3497 44.4823 8.48376C44.4823 6.94129 43.429 5.8779 41.8529 5.8779C40.257 5.8779 39.1166 6.89901 39.1166 8.56737C39.1166 10.2035 40.2782 11.1842 41.7671 11.1842ZM33.5696 8.76624C33.8098 8.02538 33.9178 7.1602 33.9178 6.20109V5.097H35.8188V10.0175H33.0269C33.2214 9.67244 33.4286 9.22498 33.5696 8.76624ZM32.1586 12.8089L32.2343 11.0685H36.6766L36.7533 12.8089H37.7739L37.85 10.0784L37.1549 10.0477V4.04346H32.6787V5.87808C32.6787 6.88886 32.5926 7.74371 32.3645 8.4949C32.201 9.04632 31.94 9.55798 31.6577 10.0477L31.0713 10.0784L31.1376 12.8089H32.1586ZM106.012 21.9144C106.456 21.3439 107.037 21.0596 107.752 21.0596C108.532 21.0596 109.114 21.3508 109.492 21.9348C109.789 22.3879 109.932 22.9236 109.916 23.5452H105.366C105.432 22.9127 105.648 22.3675 106.012 21.9144ZM112 24.0896C112 22.9129 111.71 21.9215 111.132 21.1205C110.404 20.111 109.33 19.6069 107.914 19.6069C106.47 19.6069 105.323 20.111 104.475 21.1205C103.664 22.0656 103.26 23.2508 103.26 24.6733C103.26 26.1225 103.696 27.2789 104.565 28.1393C105.435 28.9998 106.633 29.43 108.158 29.43C109.425 29.43 110.524 29.2359 111.454 28.8473L111.112 27.3919C110.316 27.69 109.431 27.8375 108.46 27.8375C107.583 27.8375 106.869 27.6177 106.316 27.179C105.708 26.687 105.39 25.9737 105.366 25.0412H111.92C111.974 24.7826 112 24.466 112 24.0896ZM102.228 21.6627C102.228 21.6631 102.228 21.6631 102.228 21.6631H102.228V21.6627ZM102.227 19.6628V21.6624C102.011 21.6239 101.78 21.6048 101.539 21.6048C100.771 21.6048 100.176 21.8825 99.7579 22.4402C99.3944 22.9318 99.213 23.5537 99.213 24.3033V29.2555H97.0278V22.7897C97.0278 21.7028 97.0069 20.7111 96.9648 19.819H98.8684L98.9484 21.6248H99.0088C99.2398 21.0045 99.6033 20.5038 100.101 20.1296C100.588 19.7924 101.114 19.6246 101.681 19.6246C101.883 19.6246 102.065 19.6377 102.227 19.6628ZM92.2527 26.7541C91.7795 27.515 91.1247 27.8973 90.289 27.8973C89.4367 27.8973 88.7769 27.5225 88.3047 26.7738C87.9132 26.1551 87.718 25.4117 87.718 24.5462C87.718 23.656 87.9132 22.9013 88.3047 22.281C88.7619 21.5314 89.4328 21.1569 90.3082 21.1569C91.1579 21.1569 91.8135 21.5314 92.2719 22.281C92.6622 22.9013 92.8573 23.6425 92.8573 24.5071C92.8573 25.3735 92.6563 26.1206 92.2527 26.7541ZM90.3896 19.6254C88.8921 19.6254 87.7008 20.091 86.8159 21.0235C85.9335 21.955 85.4914 23.1528 85.4914 24.6154C85.4914 26.0129 85.9195 27.1724 86.7764 28.0914C87.6329 29.0092 88.7822 29.4686 90.2271 29.4686C91.7241 29.4686 92.9253 28.9901 93.8281 28.0316C94.6909 27.1001 95.1232 25.9089 95.1232 24.4588C95.1232 23.0469 94.7059 21.8968 93.8683 21.0044C92.9915 20.085 91.8325 19.6254 90.3896 19.6254ZM81.8703 19.8157H84.2784V21.3908H81.8703V25.9734C81.8703 27.1383 82.2951 27.7201 83.1451 27.7201C83.5361 27.7201 83.8601 27.6887 84.1162 27.6236L84.1766 29.2156C83.7459 29.3703 83.1797 29.4482 82.4769 29.4482C81.6144 29.4482 80.9397 29.1952 80.4531 28.6904C79.9689 28.1854 79.7248 27.338 79.7248 26.1463V21.3889H78.2894V19.8157H79.7248V18.0876L81.8703 17.466V19.8157ZM76.204 23.314C76.7584 23.9215 77.0357 24.6796 77.0357 25.5842C77.0357 26.6986 76.6301 27.6039 75.8232 28.3034C74.9356 29.0668 73.6963 29.4488 72.1079 29.4488C70.6412 29.4488 69.4642 29.177 68.5766 28.6335L69.0817 26.8859C70.0394 27.4301 71.0924 27.7019 72.2387 27.7019C73.062 27.7019 73.7025 27.5231 74.1597 27.168C74.6185 26.8117 74.8495 26.336 74.8495 25.7417C74.8495 25.2097 74.6586 24.7641 74.282 24.4012C73.9035 24.0389 73.278 23.7017 72.4009 23.3917C70.0124 22.5368 68.8174 21.2874 68.8174 19.6429C68.8174 18.5695 69.2397 17.6896 70.0825 17.0029C70.925 16.3165 72.042 15.9736 73.4314 15.9736C74.6723 15.9736 75.7064 16.1809 76.5277 16.5949L75.9795 18.3043C75.2065 17.9031 74.3339 17.7018 73.3593 17.7018C72.5885 17.7018 71.9839 17.884 71.5519 18.246C71.1874 18.5695 71.003 18.9637 71.003 19.4315C71.003 19.9485 71.2135 20.3769 71.6318 20.7128C71.995 21.0232 72.6571 21.3604 73.6135 21.7227C74.7881 22.1767 75.6515 22.7059 76.204 23.314ZM61.4729 26.9065C61.0155 27.513 60.3749 27.8186 59.5517 27.8186C58.8485 27.8186 58.2781 27.581 57.8402 27.1094C57.4036 26.6359 57.1837 26.0573 57.1837 25.3712V23.7971C57.1837 23.6302 57.2186 23.4179 57.2858 23.1586C57.4196 22.6016 57.7058 22.1516 58.144 21.8081C58.5835 21.4665 59.0733 21.2933 59.6123 21.2933C60.4079 21.2933 61.0406 21.6046 61.5131 22.2246C61.9454 22.8214 62.1614 23.5795 62.1614 24.4973C62.1614 25.4943 61.9314 26.2971 61.4729 26.9065ZM60.3217 19.6246C58.8364 19.6246 57.7306 20.1873 57.0029 21.3145H56.9618L56.8398 19.8184H54.9182C54.972 20.8786 54.9991 21.912 54.9991 22.9206V33.0816H57.184V28.1298C57.7534 29.0231 58.6906 29.4687 59.9925 29.4687C61.1992 29.4687 62.2101 29.0548 63.0248 28.2256C63.9336 27.2944 64.3881 26.0256 64.3881 24.4208C64.3881 22.9838 63.9989 21.8255 63.2259 20.9441C62.4496 20.0642 61.4808 19.6246 60.3217 19.6246ZM50.1615 26.9065C49.7034 27.513 49.0632 27.8186 48.2399 27.8186C47.539 27.8186 46.9693 27.5822 46.5304 27.1094C46.0922 26.6359 45.8726 26.0573 45.8726 25.3712V23.7971C45.8726 23.6302 45.9065 23.4179 45.9741 23.1586C46.1082 22.6016 46.3953 22.1516 46.8339 21.8081C47.2718 21.4665 47.7616 21.2933 48.3006 21.2933C49.0958 21.2933 49.7302 21.6046 50.2027 22.2246C50.635 22.8214 50.8507 23.5795 50.8507 24.4973C50.8507 25.4943 50.621 26.2971 50.1615 26.9065ZM49.0111 19.6246C47.5274 19.6246 46.4212 20.1873 45.6929 21.3145H45.6518L45.5298 19.8184H43.6082C43.6617 20.8786 43.6891 21.912 43.6891 22.9206V33.0816H45.874V28.1298C46.4428 29.0231 47.3796 29.4687 48.6825 29.4687C49.8882 29.4687 50.9004 29.0548 51.7139 28.2256C52.6233 27.2944 53.0769 26.0256 53.0769 24.4208C53.0769 22.9838 52.6886 21.8255 51.9142 20.9441C51.1399 20.0642 50.1714 19.6246 49.0111 19.6246ZM34.1566 23.7986L35.2899 20.3814C35.5858 19.2942 35.8022 18.472 35.9376 17.9158H35.9784C36.3148 19.2097 36.5435 20.032 36.6659 20.3814L37.8191 23.7986H34.1566ZM34.6826 16.1669L30.2915 29.2551H32.5574L33.7722 25.4105H38.2031L39.4783 29.2551H41.8058L37.3945 16.1669H34.6826Z" fill="#665FFD"/>
</g>
<defs>
<clipPath id="clip0">
<rect width="117.044" height="32" fill="white"/>
</clipPath>
</defs>
</svg>
