<svg width="131" height="39" viewBox="0 0 131 39" fill="none" xmlns="http://www.w3.org/2000/svg">
<path fill-rule="evenodd" clip-rule="evenodd" d="M67.8809 28.2459C67.4712 28.7279 66.6999 29.1617 65.7118 29.1617C63.6633 29.1617 61.7834 27.3782 61.7834 25.0646C61.7828 24.0026 62.1945 22.9818 62.9319 22.2175C63.6692 21.4531 64.6746 21.005 65.7359 20.9675C66.6999 20.9675 67.4712 21.4013 67.905 21.8833H67.9532V21.2085H69.6402V28.5833C69.6402 31.5958 67.8568 32.8491 65.76 32.8491C63.7597 32.8491 62.5787 31.5235 62.1208 30.439L63.6874 29.7642C63.9766 30.439 64.6514 31.2343 65.76 31.2343C67.1096 31.2343 67.9291 30.3908 67.9291 28.8243V28.2459H67.8809ZM107.599 32.584H105.719L107.55 28.511L104.321 21.2085H106.249L108.418 26.4383H108.466L110.539 21.2085H112.539L107.599 32.584ZM56.9151 20.9675C54.6497 20.9675 52.818 22.7027 52.818 25.0646C52.818 27.4264 54.6497 29.1617 56.9151 29.1617C59.2047 29.1617 61.0363 27.4264 61.0363 25.0646C61.0363 22.7027 59.2047 20.9675 56.9392 20.9675H56.9151ZM43.1296 22.2207C43.1778 22.534 43.226 22.9196 43.226 23.3052C43.226 24.6067 42.8645 26.2214 41.7077 27.4023C41.1343 27.9916 40.4428 28.453 39.6785 28.7562C38.9143 29.0594 38.0946 29.1976 37.2732 29.1617C35.5767 29.1619 33.9483 28.4946 32.7397 27.3041C31.5312 26.1136 30.8395 24.4954 30.8142 22.7991C30.8395 21.1029 31.5312 19.4847 32.7397 18.2942C33.9483 17.1036 35.5767 16.4364 37.2732 16.4366C39.2012 16.4366 40.599 17.1837 41.6113 18.1959L40.4062 19.401C39.7527 18.7877 38.9335 18.3798 38.0503 18.2277C37.1671 18.0755 36.2587 18.1859 35.4376 18.5451C34.6166 18.9043 33.919 19.4966 33.4313 20.2485C32.9436 21.0004 32.6873 21.8789 32.6941 22.775C32.6845 23.3824 32.7958 23.9857 33.0216 24.5496C33.2475 25.1135 33.5832 25.6269 34.0094 26.0598C34.4356 26.4927 34.9436 26.8365 35.5039 27.0711C36.0643 27.3057 36.6657 27.4265 37.2732 27.4264C38.9361 27.4264 39.876 26.7516 40.4785 26.1491C40.9605 25.6671 41.298 24.9441 41.4426 23.9801H37.2732V22.2207H43.1296ZM47.9497 20.9675C45.6843 20.9675 43.8526 22.7027 43.8526 25.0646C43.8526 27.4264 45.6843 29.1617 47.9497 29.1617C50.2152 29.1617 52.0468 27.4264 52.0468 25.0646C52.0468 22.7027 50.2152 20.9675 47.9497 20.9675ZM80.9675 23.5704C80.5818 22.6545 79.5455 20.9675 77.4006 20.9675C75.3038 20.9675 73.5445 22.6304 73.5445 25.0646C73.5445 27.3782 75.2797 29.1617 77.6175 29.1617C78.2927 29.1657 78.9584 29.0028 79.5555 28.6875C80.1526 28.3721 80.6624 27.9141 81.0398 27.3541L79.6419 26.4142C79.4322 26.7629 79.1352 27.0507 78.7801 27.2494C78.4251 27.4481 78.0243 27.5506 77.6175 27.5469C77.1995 27.565 76.7856 27.4576 76.4292 27.2386C76.0727 27.0196 75.7899 26.6989 75.6171 26.3178L81.1121 24.0524L80.9193 23.5704H80.9675ZM100.513 20.9675C99.2116 20.9675 97.862 21.5459 97.3076 22.8232L98.9224 23.4739C99.2598 22.8232 99.8864 22.6063 100.561 22.6063C101.477 22.6063 102.441 23.1606 102.441 24.1488V24.2693C102.128 24.0765 101.429 23.7873 100.561 23.7873C98.8501 23.7873 97.0907 24.7513 97.0907 26.5106C97.0907 28.1254 98.5127 29.1617 100.079 29.1617C101.284 29.1617 101.959 28.6315 102.393 28.0049H102.441V28.9207H104.176V24.2934C104.176 22.1725 102.586 20.9675 100.513 20.9675ZM96.1267 28.9207H94.3192V16.8704H96.1267V28.9207ZM72.701 28.9207H70.8934V16.8704H72.701V28.9207ZM89.3786 16.8704C91.3789 16.8704 93.3311 18.3164 93.3311 20.606C93.3311 22.9196 91.3789 24.3657 89.3786 24.3657H86.8721V28.9207H85.0645V16.8704H89.4026H89.3786ZM56.9151 27.5469C55.686 27.5469 54.6015 26.5347 54.6015 25.0646C54.6015 23.5944 55.686 22.5822 56.9151 22.5822C58.1683 22.5822 59.2288 23.5944 59.2288 25.0646C59.2288 26.5106 58.1683 27.5469 56.9151 27.5469ZM65.8805 27.5469C64.6273 27.5469 63.591 26.5106 63.591 25.0887C63.591 23.6427 64.6273 22.5822 65.8805 22.5822C67.0855 22.5822 68.0496 23.6427 68.0496 25.0887C68.0496 26.5347 67.0855 27.5469 65.8805 27.5469ZM47.9497 27.5469C46.6965 27.5469 45.636 26.5347 45.636 25.0646C45.636 23.5944 46.6965 22.5822 47.9497 22.5822C49.1788 22.5822 50.2634 23.5944 50.2634 25.0646C50.2634 26.5106 49.1788 27.5469 47.9497 27.5469ZM100.32 27.5469C99.7418 27.5469 98.9224 27.2577 98.9224 26.5347C98.9224 25.5948 99.9346 25.2333 100.826 25.2333C101.622 25.2333 101.983 25.402 102.465 25.643C102.406 26.1714 102.155 26.6597 101.76 27.0152C101.364 27.3706 100.852 27.5684 100.32 27.571V27.5469ZM75.352 24.9441C75.3038 23.3534 76.5812 22.534 77.497 22.534C78.22 22.534 78.8225 22.9196 79.0153 23.4257L75.352 24.9441ZM89.4268 22.6786C90.7764 22.6786 91.5476 21.5459 91.5476 20.606C91.5476 19.642 90.7764 18.5574 89.4268 18.5574H86.8721V22.6545H89.4268V22.6786ZM32.3325 6.65176H36.3814V11.7129H37.0322V13.8578H36.1404V12.6287H31.9469V13.8337H31.007V11.7129H31.6336C32.0674 11.3273 32.3084 10.6525 32.3084 9.66433V6.65176H32.3325ZM57.0597 9.85714L58.4093 6.65176H59.4939L57.2525 11.6647C56.9392 12.3877 56.4572 12.7492 55.8065 12.7492C55.6137 12.7492 55.4209 12.701 55.204 12.6287L55.1076 12.5805L55.1317 12.5082L55.3727 11.6888L55.4691 11.7611C55.5896 11.8334 55.7101 11.8575 55.8065 11.8575C55.9752 11.8575 56.0957 11.8334 56.168 11.7611C56.2403 11.7129 56.3126 11.6165 56.409 11.4478L56.5777 11.014L54.6015 6.65176H55.686L57.0597 9.85714ZM76.1714 11.8816C75.8884 12.1667 75.5499 12.3908 75.1768 12.5401C74.8037 12.6893 74.404 12.7605 74.0024 12.7492C73.1348 12.7492 72.4118 12.46 71.8333 11.8575C71.5436 11.5666 71.3153 11.2204 71.1622 10.8395C71.009 10.4586 70.934 10.0507 70.9416 9.64023C70.932 9.23224 71.004 8.82644 71.1535 8.44671C71.303 8.06697 71.527 7.72097 71.8121 7.42905C72.0973 7.13713 72.438 6.90518 72.8141 6.74686C73.1903 6.58854 73.5943 6.50705 74.0024 6.50716C74.4105 6.50705 74.8145 6.58854 75.1907 6.74686C75.5668 6.90518 75.9075 7.13713 76.1927 7.42905C76.4778 7.72097 76.7018 8.06697 76.8513 8.44671C77.0008 8.82644 77.0728 9.23224 77.0632 9.64023C77.0632 10.5079 76.774 11.255 76.1956 11.8575H76.1714V11.8816ZM40.6231 6.50716C41.0312 6.50705 41.4352 6.58854 41.8114 6.74686C42.1875 6.90518 42.5282 7.13713 42.8134 7.42905C43.0986 7.72097 43.3225 8.06697 43.472 8.44671C43.6215 8.82644 43.6936 9.23224 43.6839 9.64023C43.6839 10.4838 43.3947 11.2068 42.8163 11.8093C42.5346 12.1062 42.194 12.341 41.8164 12.4987C41.4387 12.6564 41.0323 12.7335 40.6231 12.7251C39.7555 12.7251 39.0084 12.4359 38.43 11.8334C38.1388 11.5473 37.9078 11.206 37.7505 10.8293C37.5932 10.4527 37.5129 10.0484 37.5142 9.64023C37.5043 9.22608 37.5785 8.81424 37.7325 8.42964C37.8864 8.04504 38.1168 7.69569 38.4098 7.40276C38.7027 7.10983 39.052 6.87942 39.4366 6.72547C39.8212 6.57153 40.2331 6.49725 40.6472 6.50716H40.6231ZM45.8048 11.2068C46.0026 11.408 46.2391 11.5673 46.5 11.6749C46.7609 11.7826 47.0409 11.8365 47.3231 11.8334C47.6477 11.8317 47.9678 11.7573 48.2598 11.6154C48.5517 11.4736 48.8082 11.2681 49.0101 11.014L49.1065 10.9417L49.1788 11.014L49.7572 11.5924L49.6849 11.6647C49.3896 11.9995 49.026 12.2674 48.6187 12.4503C48.2113 12.6331 47.7696 12.7269 47.3231 12.7251H47.2749C46.8658 12.7286 46.4603 12.6493 46.0826 12.4922C45.705 12.335 45.3629 12.1032 45.0771 11.8106C44.7912 11.518 44.5674 11.1706 44.4191 10.7894C44.2709 10.4082 44.2011 10.0009 44.2141 9.59203C44.2074 9.18097 44.2842 8.77282 44.4399 8.39232C44.5956 8.01182 44.8269 7.6669 45.1198 7.37846C45.4128 7.09001 45.7613 6.86406 46.1441 6.71429C46.527 6.56452 46.9363 6.49405 47.3472 6.50716C48.2148 6.50716 48.9619 6.82047 49.5162 7.47118L49.5885 7.54348L49.5162 7.61578L48.9137 8.1942L48.8655 8.0978C48.6823 7.86728 48.4469 7.68367 48.1787 7.56215C47.9105 7.44062 47.6172 7.38465 47.3231 7.39888C46.7206 7.39888 46.2145 7.61578 45.8048 8.00139C45.5938 8.21219 45.4291 8.46467 45.3212 8.7427C45.2133 9.02073 45.1646 9.31821 45.1781 9.61613C45.1781 10.2909 45.395 10.8212 45.8048 11.2068ZM82.1243 6.62766C82.6063 6.62766 83.016 6.79637 83.3534 7.10967C83.6282 7.35126 83.8081 7.68265 83.8611 8.04466C83.9141 8.40667 83.8366 8.77573 83.6426 9.08592C83.5221 9.25462 83.4016 9.39923 83.2088 9.51973C83.4498 9.61613 83.6185 9.76073 83.7872 9.97764C83.98 10.2186 84.0764 10.532 84.0764 10.8694C84.0764 11.3514 83.8836 11.7852 83.5221 12.0985C83.1694 12.428 82.7034 12.6092 82.2207 12.6046H79.9311V6.65176H82.1002L82.1243 6.62766ZM54.3363 7.51938H52.7216V12.6046H51.7817V7.54348H50.167V6.62766H54.3363V7.51938ZM64.4586 12.6046H63.5428V7.54348H61.0363V12.6046H60.0723V6.65176H64.4586V12.6287V12.6046ZM66.5312 12.6046H65.5913V6.65176H66.5553V9.13412H69.2305V6.65176H70.1704V12.6287H69.2305V10.0258H66.5312V12.6287V12.6046ZM39.1289 11.2309C39.3235 11.4282 39.5565 11.5835 39.8135 11.6872C40.0705 11.7908 40.3461 11.8406 40.6231 11.8334C41.2015 11.8334 41.7077 11.6165 42.1174 11.2068C42.3198 10.9959 42.4775 10.7463 42.581 10.473C42.6846 10.1996 42.7318 9.90818 42.7199 9.61613C42.7318 9.32408 42.6846 9.03263 42.581 8.75929C42.4775 8.48595 42.3198 8.23635 42.1174 8.02549C41.9249 7.82378 41.6928 7.664 41.4357 7.55618C41.1786 7.44835 40.9019 7.3948 40.6231 7.39888C40.0206 7.39888 39.5145 7.61578 39.1048 8.02549C38.9024 8.23635 38.7447 8.48595 38.6411 8.75929C38.5376 9.03263 38.4904 9.32408 38.5023 9.61613C38.4904 9.90818 38.5376 10.1996 38.6411 10.473C38.7447 10.7463 38.9024 10.9959 39.1048 11.2068H39.1289V11.2309ZM72.5323 11.2309C72.724 11.4252 72.9531 11.5788 73.2058 11.6824C73.4584 11.7859 73.7294 11.8373 74.0024 11.8334C74.6049 11.8334 75.111 11.6165 75.5207 11.2068C75.7232 10.9959 75.8809 10.7463 75.9844 10.473C76.088 10.1996 76.1352 9.90818 76.1233 9.61613C76.1352 9.32408 76.088 9.03263 75.9844 8.75929C75.8809 8.48595 75.7232 8.23635 75.5207 8.02549C75.3255 7.82075 75.0895 7.65921 74.828 7.55128C74.5665 7.44335 74.2852 7.39144 74.0024 7.39888C73.424 7.39888 72.9179 7.61578 72.5082 8.02549C72.3014 8.23435 72.1393 8.48304 72.0315 8.75647C71.9238 9.02991 71.8728 9.32238 71.8816 9.61613C71.8728 9.90988 71.9238 10.2024 72.0315 10.4758C72.1393 10.7492 72.3014 10.9979 72.5082 11.2068L72.5323 11.2309ZM82.2689 11.7129C82.5099 11.7129 82.7268 11.6165 82.8714 11.4237C83.0401 11.255 83.1124 11.0622 83.1124 10.8453C83.1124 10.6284 83.0401 10.4355 82.8714 10.2668C82.7027 10.074 82.5099 10.0017 82.2207 10.0017H80.8952V11.6888H82.293L82.2689 11.7129ZM35.4415 11.7129V7.51938H33.2725V9.66433C33.2725 10.4837 33.1038 11.1586 32.7905 11.6888H35.4415V11.7129ZM82.1243 9.11002C82.3653 9.11002 82.5581 9.01362 82.7268 8.86901C82.8714 8.67621 82.9678 8.5075 82.9678 8.3147C82.9678 8.1219 82.8714 7.95319 82.7268 7.78449C82.6546 7.7035 82.5652 7.63979 82.4651 7.59807C82.3649 7.55635 82.2567 7.53769 82.1484 7.54348H80.8711V9.11002H82.1243ZM59.3493 6.82047V6.74816L59.2529 6.69996V6.74816H59.3493L59.3011 6.84457H59.3493V6.82047Z" fill="#665FFD"/>
<path opacity="0.7" fill-rule="evenodd" clip-rule="evenodd" d="M1.36318 31.2344C1.18878 31.0388 1.05608 30.8097 0.973209 30.561C0.890334 30.3124 0.859016 30.0495 0.881168 29.7884V29.9812V8.57989V8.77269C0.881168 8.09788 1.07397 7.61587 1.36318 7.32666L13.4135 19.2805L1.36318 31.2344Z" fill="#665FFD"/>
<path fill-rule="evenodd" clip-rule="evenodd" d="M17.2697 23.4257H17.3661L22.1862 20.63L17.3661 23.3293L17.2697 23.4257ZM17.2697 23.2329L13.4136 19.2804L17.3661 15.3279L22.1862 18.0271C22.7646 18.4128 23.1502 18.7984 23.1502 19.2804C23.1502 19.7624 22.7646 20.2444 22.1862 20.5336L17.3661 23.2329H17.2697Z" fill="#665FFD"/>
<path opacity="0.8" fill-rule="evenodd" clip-rule="evenodd" d="M2.2309 31.7164C1.84529 31.7164 1.55609 31.5236 1.36328 31.3308C1.59072 31.5681 1.90231 31.7066 2.2309 31.7164ZM2.2309 31.5236C1.84529 31.5236 1.55609 31.4272 1.36328 31.2344L13.4136 19.2805L17.366 23.233L3.38773 31.2344L2.3273 31.5236H2.2309Z" fill="#665FFD"/>
<path opacity="0.8" fill-rule="evenodd" clip-rule="evenodd" d="M13.3172 19.2804L1.36328 7.32649C1.55609 7.13369 1.84529 7.03729 2.2309 7.03729C2.52011 7.03729 2.90572 7.03729 3.29133 7.32649L17.2696 15.4243L13.4136 19.2804H13.3172ZM17.366 15.2315L3.29133 7.23009C2.90572 6.94088 2.52011 6.84448 2.2309 6.84448C2.52011 6.84448 2.90572 6.94088 3.29133 7.23009L17.366 15.2315Z" fill="#665FFD"/>
<path d="M2.3272 31.6681C2.61641 31.6681 2.95382 31.5476 3.29122 31.3548L17.2936 23.4016L3.31532 31.3548C3.00706 31.5369 2.66037 31.6443 2.3031 31.6681H2.3272Z" fill="black"/>
<path fill-rule="evenodd" clip-rule="evenodd" d="M2.2309 31.7163C1.84529 31.7163 1.55609 31.5235 1.36328 31.3307V31.2343C1.55609 31.4271 1.84529 31.5235 2.2309 31.5235C2.52011 31.5235 2.90572 31.5235 3.29133 31.2343L17.2696 23.1365L17.366 23.2329L3.29133 31.2343C2.97509 31.4483 2.61078 31.5808 2.2309 31.6199V31.7163Z" fill="#C2F1E9"/>
<path fill-rule="evenodd" clip-rule="evenodd" d="M1.26697 31.3307C1.10956 31.1276 0.994359 30.895 0.928138 30.6467C0.861917 30.3983 0.846012 30.1393 0.881359 29.8847V29.6919C0.881359 30.2703 0.977761 30.7523 1.26697 31.0415H1.36337V31.2343L1.26697 31.3307Z" fill="url(#paint0_linear)"/>
<path fill-rule="evenodd" clip-rule="evenodd" d="M1.26685 31.3308L1.36325 31.2344L1.26685 31.3308Z" fill="url(#paint1_linear)"/>
<path d="M23.1261 19.2804C23.1261 18.7984 22.7887 18.2682 22.1138 17.8826L17.3901 15.2316V15.1833L22.0897 17.8826C22.7646 18.2682 23.102 18.7743 23.102 19.2804H23.1261Z" fill="#404040"/>
<path d="M0.857179 8.45936C0.90538 7.44713 1.45969 6.89282 2.20681 6.89282C1.8935 6.89282 1.6043 6.98922 1.36329 7.20613L1.29099 7.25433C1.00609 7.59072 0.852064 8.01857 0.857179 8.45936Z" fill="#404040"/>
<path fill-rule="evenodd" clip-rule="evenodd" d="M0.881226 8.67626V8.48345C0.881226 7.90504 1.07403 7.51943 1.26683 7.23022L1.36324 7.32663C1.07403 7.61583 0.881226 8.09784 0.881226 8.77266V8.67626Z" fill="url(#paint2_linear)"/>
<path fill-rule="evenodd" clip-rule="evenodd" d="M17.2696 15.3279L3.29133 7.32649L2.2309 7.03729C1.84529 7.03729 1.55609 7.13369 1.36328 7.32649V7.23009C1.55609 7.03729 1.84529 6.84448 2.2309 6.84448C2.52011 6.84448 2.90572 6.94088 3.29133 7.23009L17.366 15.2315L17.2696 15.3279Z" fill="url(#paint3_linear)"/>
<defs>
<linearGradient id="paint0_linear" x1="11.9478" y1="8.61624" x2="-4.23085" y2="-7.56243" gradientUnits="userSpaceOnUse">
<stop stop-color="#008CDF"/>
<stop offset="1" stop-color="#00C6DF"/>
</linearGradient>
<linearGradient id="paint1_linear" x1="14.7306" y1="22.0754" x2="-7.20856" y2="0.135796" gradientUnits="userSpaceOnUse">
<stop stop-color="#DF333B"/>
<stop offset="1" stop-color="#AA0E56"/>
</linearGradient>
<linearGradient id="paint2_linear" x1="11.9477" y1="8.61629" x2="-4.23097" y2="-7.56238" gradientUnits="userSpaceOnUse">
<stop stop-color="#3FB8FF"/>
<stop offset="1" stop-color="#3FE9FF"/>
</linearGradient>
<linearGradient id="paint3_linear" x1="-1.53555" y1="0.591258" x2="8.26136" y2="-9.20565" gradientUnits="userSpaceOnUse">
<stop stop-color="#64B895"/>
<stop offset="1" stop-color="#3FF497"/>
</linearGradient>
</defs>
</svg>
