<svg width="12" height="12" viewBox="0 0 12 12" fill="none" xmlns="http://www.w3.org/2000/svg">
<path fill-rule="evenodd" clip-rule="evenodd" d="M9.9811 0C10.1853 0 10.2757 0.0564391 10.3894 0.136106C11.0376 0.592325 11.9393 1.48046 12 1.8045C11.9976 1.82956 11.9979 1.88327 11.9982 1.94563C12.0036 2.60326 12.0196 4.60447 8.52171 8.31569C4.68585 12.1797 2.77443 12.0368 2.05484 11.9836C1.94819 11.9759 1.8605 11.9705 1.79147 11.9726C1.49018 11.9123 0.634741 11.0429 0.181476 10.3894C-0.158789 9.89887 0.16192 9.44113 0.476369 9.34594C0.583316 9.28178 0.900643 9.26035 1.54706 8.95661C2.48292 8.5171 3.06417 8.24259 3.22177 8.14592C3.25525 8.13249 3.40811 8.13607 3.61697 8.24736C3.93929 8.41744 4.70362 8.68658 4.84553 8.73611C5.16548 8.8653 5.91114 8.80772 7.46883 7.23855C8.77619 5.92211 8.89825 5.38413 8.85855 5.06278C8.84551 4.95805 8.80819 4.86108 8.75249 4.78171C8.65532 4.55733 8.32322 3.79378 8.17539 3.51032C8.06519 3.29997 8.05956 3.1472 8.07378 3.1096C8.15762 2.97712 8.42365 2.4669 8.85055 1.64606C9.2099 0.955018 9.36862 0.408318 9.36862 0.408318C9.36862 0.408318 9.54698 0 9.9811 0Z" fill="#665FFD"/>
</svg>
